# xmcd
#
# Track frame offsets:
#  150
#  21633
#  39460
#  55018
#  73210
#  98385
#  120405
#
# Disc length: 1954 seconds
#
# Revision: 1
# Processed by: cddbd v1.5.1PL2 Copyright (c) Steve Scherf et al.
# Submitted via: Collectorz.com_Music_Collector 6.11
#
DISCID=5607a007
DTITLE=Victor Feldman - Fiesta
DYEAR=1984
DGENRE=Jazz
TTITLE0=Fiesta
TTITLE1=Elusive spirit
TTITLE2=With your love
TTITLE3=Forever
TTITLE4=Summer games
TTITLE5=Amigos
TTITLE6=Viva Zapata !
EXTD=
EXTT0=
EXTT1=
EXTT2=
EXTT3=
EXTT4=
EXTT5=
EXTT6=
PLAYORDER=
